<svg width="79" height="38" viewBox="0 0 79 38" fill="none" xmlns="http://www.w3.org/2000/svg">
<path d="M28.808 27.1182C28.808 24.6039 29.7372 22.3056 31.2702 20.554V33.6799C29.7372 31.9282 28.808 29.6326 28.808 27.1182Z" fill="white"/>
<path d="M38.8079 0.929199L38.7819 0.989064L37.0484 4.96356C35.2759 9.02134 31.2676 11.645 26.8402 11.645H18.1312L17.2775 11.671H17.1447C16.7907 11.6944 16.4263 11.7231 16.0672 11.7543C12.7121 12.2436 10.7106 14.9193 10.7106 18.9172V19.0109C10.7106 23.5633 13.1026 26.1713 17.2723 26.1713H19.0448C19.8178 26.1713 20.4451 25.544 20.4451 24.7736V23.5112H18.5138C17.7095 23.5112 17.0588 22.8605 17.0588 22.0562V18.6127C17.0588 17.8084 17.7095 17.1577 18.5138 17.1577H25.4347C23.3576 19.9375 22.1291 23.3837 22.1291 27.1187C22.1291 30.8537 23.3342 34.2322 25.3748 36.9964H17.5586C12.2566 36.9964 7.78241 35.1952 4.6252 31.7881C1.59813 28.5242 0 24.0578 0 18.8678V18.7715C0 13.5997 1.58511 9.18011 4.58095 5.98907C7.68871 2.67829 12.1187 0.929199 17.3946 0.929199H38.8079Z" fill="white"/>
<path d="M46.3665 20.6396C47.8553 22.3809 48.7558 24.6428 48.7558 27.118C48.7558 29.5933 47.8553 31.8526 46.3665 33.5938V20.6396Z" fill="url(#paint0_linear_126_7)"/>
<path fill-rule="evenodd" clip-rule="evenodd" d="M77.7198 18.9141V18.8178C77.7198 13.6304 76.1321 9.20037 73.1284 5.99891C70.0103 2.68032 65.5673 0.926025 60.2784 0.926025H38.8104L39.56 2.64388L40.5751 4.9708C42.3502 9.04159 46.3689 11.673 50.8093 11.673H59.5392L60.3955 11.6991H60.5282C60.8848 11.7199 61.2492 11.7485 61.611 11.7798C61.6604 11.7865 61.7097 11.7951 61.7574 11.8041C68.6427 12.3133 74.5152 16.4509 77.4761 22.3119C77.6394 21.2182 77.7198 20.0856 77.7198 18.9141ZM76.7188 25.5816C76.7185 25.5828 76.7181 25.5839 76.7177 25.5851C75.9421 27.9797 74.7214 30.1009 73.0842 31.8683C69.9166 35.2831 65.4319 37.0895 60.1144 37.0895H52.1211C54.2008 34.3097 55.4345 30.8584 55.4345 27.1181C55.4345 23.7527 54.4376 20.6189 52.7198 18.0005C54.9686 19.0963 56.6344 21.2019 57.1316 23.7267C57.194 24.0364 57.2201 24.3513 57.2201 24.6663V24.8329C57.2201 25.6085 57.8499 26.2358 58.623 26.2358H60.4007C64.5834 26.2358 66.9806 23.6199 66.9806 19.0572V18.9609C66.9806 17.2691 66.624 15.8141 65.9551 14.6585C65.9542 14.6569 65.9533 14.6553 65.9524 14.6537C71.0333 16.4074 75.0392 20.4673 76.7188 25.5816Z" fill="url(#paint1_linear_126_7)"/>
<path d="M48.7559 27.1183C48.7559 29.5909 47.8554 31.8528 46.3666 33.5941C44.6929 35.5488 42.2801 36.8502 39.5602 37.061C39.3025 37.0792 39.0448 37.0896 38.782 37.0896C35.7887 37.0896 33.1 35.77 31.2702 33.68C29.7372 31.9283 28.808 29.6326 28.808 27.1183C28.808 24.6039 29.7372 22.3057 31.2702 20.554C33.1 18.4639 35.7887 17.1443 38.782 17.1443C39.0448 17.1443 39.3025 17.1547 39.5602 17.1729C42.2801 17.3837 44.6929 18.6852 46.3666 20.6399C47.8554 22.3811 48.7559 24.643 48.7559 27.1183Z" fill="black"/>
<path d="M48.7559 27.1183C48.7559 29.5909 47.8554 31.8528 46.3666 33.5941C44.6929 35.5488 42.2801 36.8502 39.5602 37.061C39.3025 37.0792 39.0448 37.0896 38.782 37.0896C35.7887 37.0896 33.1 35.77 31.2702 33.68C29.7372 31.9283 28.808 29.6326 28.808 27.1183C28.808 24.6039 29.7372 22.3057 31.2702 20.554C33.1 18.4639 35.7887 17.1443 38.782 17.1443C39.0448 17.1443 39.3025 17.1547 39.5602 17.1729C42.2801 17.3837 44.6929 18.6852 46.3666 20.6399C47.8554 22.3811 48.7559 24.643 48.7559 27.1183Z" fill="white"/>
<defs>
<linearGradient id="paint0_linear_126_7" x1="47.5611" y1="33.5938" x2="47.5611" y2="20.6396" gradientUnits="userSpaceOnUse">
<stop offset="0.05" stop-color="#EF6F27"/>
<stop offset="1" stop-color="#FEB94D"/>
</linearGradient>
<linearGradient id="paint1_linear_126_7" x1="58.2638" y1="37.0895" x2="58.2638" y2="0.926025" gradientUnits="userSpaceOnUse">
<stop offset="0.05" stop-color="#EF6F27"/>
<stop offset="1" stop-color="#FEB94D"/>
</linearGradient>
</defs>
</svg>
