<svg width="263" height="38" viewBox="0 0 263 38" fill="none" xmlns="http://www.w3.org/2000/svg">
<path d="M28.808 27.1182C28.808 24.6039 29.7372 22.3056 31.2702 20.554V33.6799C29.7372 31.9282 28.808 29.6326 28.808 27.1182Z" fill="white"/>
<path d="M38.8079 0.929199L38.7819 0.989064L37.0484 4.96356C35.2759 9.02134 31.2676 11.645 26.8402 11.645H18.1312L17.2775 11.671H17.1447C16.7907 11.6944 16.4263 11.7231 16.0672 11.7543C12.7121 12.2436 10.7106 14.9193 10.7106 18.9172V19.0109C10.7106 23.5633 13.1026 26.1713 17.2723 26.1713H19.0448C19.8178 26.1713 20.4451 25.544 20.4451 24.7736V23.5112H18.5138C17.7095 23.5112 17.0588 22.8605 17.0588 22.0562V18.6127C17.0588 17.8084 17.7095 17.1577 18.5138 17.1577H25.4347C23.3576 19.9375 22.1291 23.3837 22.1291 27.1187C22.1291 30.8537 23.3342 34.2322 25.3748 36.9964H17.5586C12.2566 36.9964 7.78241 35.1952 4.6252 31.7881C1.59813 28.5242 0 24.0578 0 18.8678V18.7715C0 13.5997 1.58511 9.18011 4.58095 5.98907C7.68871 2.67829 12.1187 0.929199 17.3946 0.929199H38.8079Z" fill="white"/>
<path d="M46.3665 20.6396C47.8553 22.3809 48.7558 24.6428 48.7558 27.118C48.7558 29.5933 47.8553 31.8526 46.3665 33.5938V20.6396Z" fill="url(#paint0_linear_126_6)"/>
<path fill-rule="evenodd" clip-rule="evenodd" d="M77.7198 18.9141V18.8178C77.7198 13.6304 76.1321 9.20037 73.1284 5.99891C70.0103 2.68032 65.5673 0.926025 60.2784 0.926025H38.8104L39.56 2.64388L40.5751 4.9708C42.3502 9.04159 46.3689 11.673 50.8093 11.673H59.5392L60.3955 11.6991H60.5282C60.8848 11.7199 61.2492 11.7485 61.611 11.7798C61.6604 11.7865 61.7097 11.7951 61.7574 11.8041C68.6427 12.3133 74.5152 16.4509 77.4761 22.3119C77.6394 21.2182 77.7198 20.0856 77.7198 18.9141ZM76.7188 25.5816C76.7185 25.5828 76.7181 25.5839 76.7177 25.5851C75.9421 27.9797 74.7214 30.1009 73.0842 31.8683C69.9166 35.2831 65.4319 37.0895 60.1144 37.0895H52.1211C54.2008 34.3097 55.4345 30.8584 55.4345 27.1181C55.4345 23.7527 54.4376 20.6189 52.7198 18.0005C54.9686 19.0963 56.6344 21.2019 57.1316 23.7267C57.194 24.0364 57.2201 24.3513 57.2201 24.6663V24.8329C57.2201 25.6085 57.8499 26.2358 58.623 26.2358H60.4007C64.5834 26.2358 66.9806 23.6199 66.9806 19.0572V18.9609C66.9806 17.2691 66.624 15.8141 65.9551 14.6585C65.9542 14.6569 65.9533 14.6553 65.9524 14.6537C71.0333 16.4074 75.0392 20.4673 76.7188 25.5816Z" fill="url(#paint1_linear_126_6)"/>
<path d="M48.7559 27.1183C48.7559 29.5909 47.8554 31.8528 46.3666 33.5941C44.6929 35.5488 42.2801 36.8502 39.5602 37.061C39.3025 37.0792 39.0448 37.0896 38.782 37.0896C35.7887 37.0896 33.1 35.77 31.2702 33.68C29.7372 31.9283 28.808 29.6326 28.808 27.1183C28.808 24.6039 29.7372 22.3057 31.2702 20.554C33.1 18.4639 35.7887 17.1443 38.782 17.1443C39.0448 17.1443 39.3025 17.1547 39.5602 17.1729C42.2801 17.3837 44.6929 18.6852 46.3666 20.6399C47.8554 22.3811 48.7559 24.643 48.7559 27.1183Z" fill="black"/>
<path d="M48.7559 27.1183C48.7559 29.5909 47.8554 31.8528 46.3666 33.5941C44.6929 35.5488 42.2801 36.8502 39.5602 37.061C39.3025 37.0792 39.0448 37.0896 38.782 37.0896C35.7887 37.0896 33.1 35.77 31.2702 33.68C29.7372 31.9283 28.808 29.6326 28.808 27.1183C28.808 24.6039 29.7372 22.3057 31.2702 20.554C33.1 18.4639 35.7887 17.1443 38.782 17.1443C39.0448 17.1443 39.3025 17.1547 39.5602 17.1729C42.2801 17.3837 44.6929 18.6852 46.3666 20.6399C47.8554 22.3811 48.7559 24.643 48.7559 27.1183Z" fill="white"/>
<path d="M110.873 15.9728C110.418 15.2331 109.856 14.6855 109.202 14.3299C108.548 13.9743 107.73 13.7965 106.741 13.7965C105.113 13.7965 103.932 14.3228 103.2 15.3682C102.467 16.4137 102.104 17.9784 102.104 20.048C102.104 22.1176 102.467 23.6111 103.185 24.5641C103.904 25.51 105.07 25.9865 106.67 25.9865C107.872 25.9865 108.989 25.7376 110.006 25.2326V22.4447H106.507V19.2301H113.661V27.16C112.829 27.7716 111.798 28.2695 110.568 28.6535C109.344 29.0304 108.078 29.2153 106.777 29.2153C103.982 29.2153 101.877 28.4899 100.461 27.0391C99.0462 25.5811 98.3421 23.2484 98.3421 20.048C98.3421 13.7254 101.123 10.5676 106.685 10.5676C108.313 10.5676 109.728 10.845 110.937 11.3855C112.139 11.9331 113.057 12.7297 113.697 13.768L110.881 15.9728H110.873Z" fill="white"/>
<path d="M130.09 13.0073C128.853 11.3787 126.904 10.5608 124.237 10.5608C121.57 10.5608 119.635 11.3787 118.384 13.0073C117.139 14.6289 116.52 16.9261 116.52 19.8989C116.52 22.8717 117.139 25.1333 118.384 26.7691C119.635 28.4048 121.591 29.2156 124.237 29.2156C126.883 29.2156 128.661 28.4404 129.969 26.89C131.285 25.3396 131.946 23.0068 131.946 19.8989C131.946 16.7909 131.328 14.6289 130.09 13.0073ZM127.274 24.5359C126.683 25.5031 125.666 25.9868 124.237 25.9868C122.807 25.9868 121.797 25.5031 121.186 24.5359C120.581 23.5545 120.283 22.0111 120.283 19.8989C120.283 17.7866 120.581 16.2291 121.186 15.2618C121.783 14.2804 122.807 13.7896 124.237 13.7896C125.666 13.7896 126.683 14.2804 127.274 15.2618C127.878 16.2291 128.177 17.7724 128.177 19.8989C128.177 22.0254 127.878 23.5545 127.274 24.5359Z" fill="white"/>
<path d="M144.478 21.6343C145.651 21.3853 146.554 20.8093 147.202 19.9131C147.842 19.0028 148.162 17.7866 148.162 16.2505C148.162 14.3658 147.628 13.0074 146.561 12.1753C145.509 11.3503 143.823 10.9307 141.512 10.9307H135.004V28.8458H138.653V22.061H140.502L145.082 28.8458H149.264L144.478 21.6343ZM143.219 18.6543C142.778 18.8037 142.152 18.8748 141.334 18.8748H138.653V14.1026H141.498C142.55 14.1026 143.311 14.2662 143.781 14.5791C144.243 14.8849 144.478 15.4966 144.478 16.414C144.478 17.0968 144.378 17.6017 144.179 17.9289C143.98 18.256 143.66 18.4979 143.219 18.6543Z" fill="url(#paint2_linear_126_6)"/>
<path d="M159.655 28.8458H151V26.0295H153.503V13.747H151V10.9307H159.655V13.747H157.166V26.0295H159.655V28.8458Z" fill="url(#paint3_linear_126_6)"/>
<path d="M162.912 28.8458V10.9307H166.561V25.5103H174.1V28.8458H162.912Z" fill="url(#paint4_linear_126_6)"/>
<path d="M176.339 28.8458V10.9307H179.988V25.5103H187.527V28.8458H176.339Z" fill="url(#paint5_linear_126_6)"/>
<path d="M198.857 10.9307H194.113L188.188 28.8458H191.801L192.975 25.2187H199.866L201.068 28.8458H204.802L198.857 10.9307ZM194.013 22.0183L196.424 14.6076L198.842 22.0183H194.013Z" fill="url(#paint6_linear_126_6)"/>
<path d="M226.494 14.7285C225.896 13.4199 224.979 12.4669 223.734 11.8552C222.49 11.2436 220.811 10.9307 218.699 10.9307H213.287V28.8458H218.742C220.911 28.8458 222.596 28.5471 223.791 27.9568C225 27.3594 225.896 26.3993 226.494 25.0978C227.091 23.7892 227.397 22.0539 227.397 19.8989C227.397 17.744 227.091 16.0229 226.494 14.7285ZM223.158 23.3482C222.852 24.1235 222.333 24.6782 221.601 25.0125C220.868 25.3467 219.78 25.5103 218.343 25.5103H216.949V14.2662H218.343C219.78 14.2662 220.868 14.4369 221.601 14.7712C222.34 15.0983 222.867 15.6388 223.172 16.3998C223.478 17.1537 223.627 18.3058 223.627 19.8705C223.627 21.4351 223.471 22.573 223.158 23.3482Z" fill="white"/>
<path d="M242.176 21.2927C242.176 19.1947 241.664 17.6087 240.647 16.5206C239.63 15.4253 238.157 14.8777 236.23 14.8777C231.878 14.8777 229.701 17.3029 229.701 22.1675C229.701 24.5358 230.249 26.3067 231.344 27.4802C232.447 28.6608 234.118 29.244 236.351 29.244C237.852 29.244 239.039 29.0519 239.907 28.6679C240.775 28.2767 241.479 27.6864 242.026 26.9041L239.537 25.1261C239.167 25.5955 238.734 25.9084 238.236 26.0791C237.738 26.2427 237.169 26.328 236.515 26.328C235.377 26.328 234.545 26.0649 234.025 25.5457C233.499 25.0123 233.208 24.1446 233.151 22.9356H242.176V21.2927ZM233.236 20.6242C233.364 19.7779 233.542 19.152 233.769 18.7537C233.997 18.3555 234.296 18.0496 234.68 17.8505C235.064 17.6443 235.547 17.5447 236.145 17.5447C237.951 17.5447 238.854 18.5688 238.854 20.6242H233.236Z" fill="url(#paint7_linear_126_6)"/>
<path d="M248.89 14.2662V18.1494H255.497V21.364H248.89V28.8458H245.241V10.9307H256.755V14.2662H248.89Z" fill="url(#paint8_linear_126_6)"/>
<path d="M259.472 15.276V28.8458H262.808V15.276H259.472ZM262.552 10.2549C262.267 9.9989 261.791 9.86377 261.115 9.86377C260.44 9.86377 259.97 9.99889 259.693 10.2691C259.416 10.5323 259.28 10.9732 259.28 11.5707C259.28 12.1183 259.408 12.5308 259.664 12.8295C259.92 13.1211 260.404 13.2562 261.115 13.2562C261.748 13.2562 262.218 13.1353 262.523 12.8864C262.843 12.6446 263 12.2036 263 11.5707C263 10.9377 262.851 10.511 262.552 10.2549Z" fill="url(#paint9_linear_126_6)"/>
<defs>
<linearGradient id="paint0_linear_126_6" x1="47.5611" y1="33.5938" x2="47.5611" y2="20.6396" gradientUnits="userSpaceOnUse">
<stop offset="0.05" stop-color="#EF6F27"/>
<stop offset="1" stop-color="#FEB94D"/>
</linearGradient>
<linearGradient id="paint1_linear_126_6" x1="58.2638" y1="37.0895" x2="58.2638" y2="0.926025" gradientUnits="userSpaceOnUse">
<stop offset="0.05" stop-color="#EF6F27"/>
<stop offset="1" stop-color="#FEB94D"/>
</linearGradient>
<linearGradient id="paint2_linear_126_6" x1="142.131" y1="28.8458" x2="142.131" y2="10.9307" gradientUnits="userSpaceOnUse">
<stop offset="0.05" stop-color="#EF6F27"/>
<stop offset="1" stop-color="#FEB94D"/>
</linearGradient>
<linearGradient id="paint3_linear_126_6" x1="155.331" y1="28.8458" x2="155.331" y2="10.9307" gradientUnits="userSpaceOnUse">
<stop offset="0.05" stop-color="#EF6F27"/>
<stop offset="1" stop-color="#FEB94D"/>
</linearGradient>
<linearGradient id="paint4_linear_126_6" x1="168.502" y1="28.8458" x2="168.502" y2="10.9307" gradientUnits="userSpaceOnUse">
<stop offset="0.05" stop-color="#EF6F27"/>
<stop offset="1" stop-color="#FEB94D"/>
</linearGradient>
<linearGradient id="paint5_linear_126_6" x1="181.937" y1="28.8458" x2="181.937" y2="10.9307" gradientUnits="userSpaceOnUse">
<stop offset="0.05" stop-color="#EF6F27"/>
<stop offset="1" stop-color="#FEB94D"/>
</linearGradient>
<linearGradient id="paint6_linear_126_6" x1="196.495" y1="28.8458" x2="196.495" y2="10.9307" gradientUnits="userSpaceOnUse">
<stop offset="0.05" stop-color="#EF6F27"/>
<stop offset="1" stop-color="#FEB94D"/>
</linearGradient>
<linearGradient id="paint7_linear_126_6" x1="235.939" y1="29.244" x2="235.939" y2="14.8777" gradientUnits="userSpaceOnUse">
<stop offset="0.05" stop-color="#EF6F27"/>
<stop offset="1" stop-color="#FEB94D"/>
</linearGradient>
<linearGradient id="paint8_linear_126_6" x1="251.002" y1="28.8458" x2="251.002" y2="10.9307" gradientUnits="userSpaceOnUse">
<stop offset="0.05" stop-color="#EF6F27"/>
<stop offset="1" stop-color="#FEB94D"/>
</linearGradient>
<linearGradient id="paint9_linear_126_6" x1="261.144" y1="28.8458" x2="261.144" y2="9.86377" gradientUnits="userSpaceOnUse">
<stop offset="0.05" stop-color="#EF6F27"/>
<stop offset="1" stop-color="#FEB94D"/>
</linearGradient>
</defs>
</svg>
