<?xml version="1.0" standalone="no"?>
<!DOCTYPE svg PUBLIC "-//W3C//DTD SVG 20010904//EN"
 "http://www.w3.org/TR/2001/REC-SVG-20010904/DTD/svg10.dtd">
<svg version="1.0" xmlns="http://www.w3.org/2000/svg"
 width="1264.000000pt" height="1264.000000pt" viewBox="0 0 1264.000000 1264.000000"
 preserveAspectRatio="xMidYMid meet">
<metadata>
Created by potrace 1.14, written by Peter Selinger 2001-2017
</metadata>
<g transform="translate(0.000000,1264.000000) scale(0.100000,-0.100000)"
fill="#000000" stroke="none">
<path d="M2963 9213 c-5 -1 -111 -4 -238 -7 -126 -2 -250 -7 -275 -10 -94 -10
-166 -19 -190 -23 -14 -2 -36 -5 -50 -7 -139 -20 -465 -110 -587 -162 -91 -39
-115 -50 -203 -94 -128 -64 -152 -78 -275 -158 -196 -128 -442 -361 -577 -547
-4 -5 -18 -23 -31 -40 -29 -38 -106 -156 -141 -215 -22 -39 -146 -281 -147
-287 0 -2 -6 -17 -13 -35 -7 -18 -17 -42 -21 -53 -4 -11 -9 -24 -11 -30 -2 -5
-17 -50 -34 -100 -38 -108 -32 -88 -74 -257 -18 -76 -31 -139 -29 -142 3 -2 0
-13 -5 -23 -5 -10 -13 -42 -16 -72 -4 -30 -9 -64 -11 -75 -20 -96 -30 -273
-30 -531 1 -260 9 -408 31 -525 3 -14 6 -39 8 -55 2 -17 9 -55 15 -85 6 -30
12 -64 14 -75 2 -11 7 -33 11 -50 4 -16 12 -50 18 -75 22 -95 100 -337 128
-397 11 -24 20 -45 20 -48 0 -10 102 -218 136 -277 45 -78 175 -274 206 -309
13 -15 34 -41 48 -59 56 -74 190 -213 281 -291 35 -30 70 -60 77 -67 30 -27
162 -122 171 -122 5 0 11 -4 13 -8 4 -10 135 -92 147 -92 5 0 11 -4 13 -8 4
-9 236 -124 293 -145 22 -8 77 -28 123 -45 45 -17 82 -29 82 -26 0 3 8 0 19
-5 35 -19 276 -78 391 -95 19 -3 44 -7 55 -10 11 -2 52 -7 90 -11 39 -4 86 -9
105 -12 29 -3 486 -15 528 -14 6 0 41 0 77 0 36 0 73 1 83 1 9 0 53 0 97 -1
44 0 85 0 90 0 28 1 166 3 210 2 28 0 82 -1 120 0 39 0 93 0 120 0 205 -2 225
-1 225 13 0 8 -4 16 -8 18 -10 4 -112 154 -112 164 0 4 -6 15 -14 23 -8 9 -41
68 -73 131 -51 99 -74 148 -123 265 -9 21 -22 56 -25 65 -1 3 -11 37 -24 75
-12 39 -24 77 -26 85 -2 8 -8 30 -14 48 -5 17 -7 32 -4 32 3 0 1 6 -4 13 -6 6
-20 64 -32 127 -20 110 -24 134 -38 260 -15 124 -8 504 11 620 3 14 10 59 16
100 6 41 16 93 22 115 5 22 11 47 13 56 2 9 9 36 15 60 15 53 17 63 18 69 1 3
14 42 30 87 16 45 27 84 24 88 -3 3 0 5 6 5 7 0 12 9 12 19 0 11 7 32 15 48 8
15 42 86 76 158 63 133 166 308 226 382 18 23 30 43 26 46 -5 2 -267 3 -583 2
-570 -1 -575 -1 -615 -23 -51 -27 -85 -59 -110 -103 -19 -32 -20 -55 -23 -359
-4 -378 -2 -391 69 -462 49 -49 97 -69 166 -68 41 0 55 0 123 -3 25 -2 53 1
63 6 9 4 17 4 17 0 0 -4 21 -8 47 -8 l48 0 3 -114 c3 -146 -11 -194 -75 -251
-25 -22 -54 -40 -64 -40 -10 0 -20 -4 -23 -9 -6 -9 -480 -7 -526 2 -14 3 -41
8 -60 11 -44 7 -149 34 -175 45 -105 45 -139 62 -200 103 -155 103 -252 226
-345 443 -27 60 -64 225 -76 335 -14 124 -8 380 10 476 3 12 7 37 10 55 42
256 191 509 384 651 103 76 204 121 369 163 96 25 147 26 1053 29 470 2 880 7
910 11 30 4 68 8 85 10 126 14 338 74 470 135 116 52 175 84 175 92 0 4 6 8
14 8 8 0 21 6 28 13 8 6 25 19 40 27 98 56 329 260 366 323 9 15 22 27 29 27
7 0 13 6 13 13 0 8 9 22 20 32 46 42 184 278 244 418 9 20 24 54 33 75 82 185
145 329 147 337 1 6 16 39 33 75 16 36 33 76 38 89 10 34 24 15 75 -104 23
-55 53 -124 66 -153 13 -29 36 -80 50 -115 15 -34 34 -80 44 -102 10 -22 31
-69 46 -105 120 -273 288 -505 490 -675 107 -91 96 -82 183 -139 100 -65 236
-136 331 -171 3 -1 18 -7 33 -13 15 -7 40 -15 55 -18 15 -4 33 -11 40 -17 6
-5 12 -7 12 -3 0 3 11 1 24 -4 33 -12 174 -42 266 -56 25 -4 414 -8 865 -10
861 -3 1015 -7 1185 -29 25 -3 65 -8 90 -11 43 -5 177 -28 230 -39 14 -3 36
-7 50 -10 14 -3 59 -14 100 -25 41 -12 82 -22 90 -25 8 -2 34 -10 58 -19 23
-8 46 -15 50 -16 6 0 170 -60 217 -80 126 -52 445 -223 453 -242 2 -5 8 -8 13
-8 5 0 27 -12 48 -27 21 -16 49 -35 61 -43 29 -20 152 -112 166 -125 6 -5 32
-28 59 -50 60 -49 286 -274 337 -335 119 -144 208 -262 208 -277 0 -7 4 -13 8
-13 8 0 140 -216 177 -288 9 -19 19 -32 21 -29 3 3 8 29 10 59 3 29 7 64 9 78
17 90 24 496 12 665 -8 112 -22 241 -31 290 -5 30 -20 119 -21 130 -1 6 -4 24
-8 40 -4 17 -9 39 -11 50 -10 50 -28 123 -36 150 -5 17 -23 75 -40 130 -59
191 -181 464 -261 583 -16 24 -29 45 -29 47 0 11 -130 191 -162 226 -10 11
-18 21 -18 23 0 16 -212 232 -305 312 -179 152 -436 310 -640 394 -11 4 -36
15 -55 23 -51 22 -218 78 -248 83 -14 3 -29 7 -34 10 -4 3 -17 7 -28 10 -11 2
-28 6 -37 9 -48 12 -255 53 -303 60 -182 23 -195 24 -358 31 -132 5 -6819 12
-6839 7z"/>
<path d="M10560 7006 c0 -2 14 -31 30 -64 17 -34 30 -64 30 -67 0 -4 6 -21 14
-38 14 -32 64 -229 65 -257 0 -8 3 -33 7 -55 9 -51 10 -309 2 -400 -13 -143
-58 -313 -115 -434 -29 -61 -74 -134 -85 -139 -5 -2 -8 -8 -8 -13 0 -8 -12
-23 -80 -99 -36 -40 -153 -126 -213 -157 -66 -34 -192 -79 -259 -92 -29 -6
-66 -13 -83 -17 -16 -3 -140 -7 -274 -9 -280 -3 -305 1 -370 68 -48 48 -62 90
-67 202 -6 142 -53 318 -116 439 -102 195 -187 302 -358 451 -44 37 -146 105
-160 105 -5 0 -10 3 -10 8 0 7 -47 32 -61 32 -6 0 24 -53 103 -185 45 -75 152
-324 169 -393 1 -4 9 -23 17 -41 7 -19 15 -42 17 -50 2 -9 15 -59 29 -112 14
-53 28 -109 30 -125 3 -16 10 -54 16 -84 6 -30 13 -80 16 -110 3 -30 10 -82
14 -115 8 -62 6 -471 -3 -515 -3 -14 -8 -47 -12 -75 -16 -120 -18 -131 -54
-285 -20 -85 -73 -257 -91 -295 -5 -11 -19 -45 -30 -75 -22 -56 -130 -281
-140 -290 -3 -3 -12 -18 -20 -34 -8 -16 -48 -79 -87 -140 -40 -61 -73 -113
-73 -116 0 -7 1408 -4 1515 4 50 4 108 9 130 12 22 2 58 7 80 9 22 2 40 5 40
5 0 1 11 3 25 5 62 7 113 15 119 19 3 2 22 7 41 10 43 7 50 9 174 41 54 14
103 28 107 31 5 3 17 7 26 9 25 5 164 57 243 91 222 95 467 248 639 399 53 45
234 226 271 270 58 68 160 205 160 215 0 6 7 13 15 16 8 4 15 10 15 15 0 5 19
39 43 76 24 38 59 97 77 133 19 36 38 68 43 71 5 3 8 8 6 10 -1 2 8 27 21 54
72 157 130 311 130 343 0 36 -86 244 -163 396 -102 200 -252 419 -397 580
-110 123 -319 316 -379 350 -9 5 -22 15 -28 22 -22 22 -222 154 -233 154 -5 0
-10 3 -10 8 0 4 -10 12 -23 18 -12 6 -65 33 -117 60 -101 53 -210 101 -300
134 -59 22 -60 22 -60 16z"/>
<path d="M5999 6604 c-292 -38 -576 -160 -799 -342 -47 -38 -214 -205 -245
-244 -101 -127 -193 -297 -263 -483 -18 -46 -62 -230 -68 -278 -22 -205 -21
-343 7 -502 6 -33 12 -71 14 -85 2 -14 7 -36 13 -50 5 -14 10 -28 11 -32 1 -4
3 -13 6 -20 2 -7 9 -31 15 -53 30 -98 156 -355 189 -385 3 -3 22 -27 41 -55
65 -94 187 -220 296 -306 71 -56 195 -139 207 -139 4 0 24 -10 45 -23 71 -45
223 -102 357 -136 74 -18 113 -25 205 -37 65 -9 240 -10 313 -2 40 4 90 10
113 12 58 7 194 40 254 63 8 3 22 7 31 9 22 5 175 75 238 109 188 104 334 229
495 425 85 105 203 330 250 477 26 83 57 207 55 221 -1 4 0 9 1 12 24 64 28
393 4 500 -3 14 -7 34 -8 45 -52 307 -204 601 -431 831 -139 141 -276 240
-438 318 -79 37 -112 52 -137 61 -3 1 -12 4 -20 8 -69 28 -222 65 -340 83 -80
12 -313 11 -411 -2z"/>
</g>
</svg>
